<svg version="1.1"
	xmlns="http://www.w3.org/2000/svg"
	xmlns:svg="http://www.w3.org/2000/svg"
	id="icon" 
	width="340"
	height="340">

    <rect x="0" y="0" width="340" height="340" fill="#974493" rx="5%" />
    <rect x="14" y="8" width="318" height="315" fill="white" rx="5%" />

    <!-- I -->
    <rect x="40" y="45" width="12" height="78" fill="#974493" />
    <!-- D -->
    <svg x="80" y="40">
        <path d="m 0,5
                c 6.79,-1.17 15.81,-1.76 25.18,-1.76 15.11,0 24.71,2.46 32.44,7.85 8.67,5.97 14.29,15.81 14.29,30.33 0,16.16 -6.09,26.58 -13.7,32.56 -8.67,6.79 -21.67,9.72 -37.12,9.72 -10.19,0 -16.98,-0.7 -21.08,-1.41
                v -77.29
                z
                m 21.2,62.07
                c 1.05,0.23 3.04,0.23 4.45,0.23 13.7,0.23 23.89,-7.38 23.89,-25.18 0,-15.46 -9.25,-22.72 -21.9,-22.72 -3.28,0 -5.39,0.23 -6.44,0.47
                z" id="path44" fill="#974493" />
    </svg>
	<!-- E -->
    <svg x="180" y="45">
        <rect x="0" y="0" width="56" height="78" fill="#974493" />
        <polygon points="" style="fill:white;">
            <animate 
				attributeName="points"
				dur="1s"
				fill="freeze"
				from="57,5, 0,5, 0,73 57,73"
                to="57,5, 22,15, 22,63 57,73" />
        </polygon>
        <rect x="40" y="38" width="18" height="5" fill="#974493">
            <animate
				attributeName="x"
				dur="1s"
				fill="freeze"
				from="10"
				to="25" />
            <animate
				attributeName="width"
				dur="1s"
				fill="freeze"
				from="25"
				to="18" />
        </rect>
    </svg>
	
	<!-- C -->
	<svg x="50" y="118">
		<path
			d="m 100,100
			c -2.93,1.52 -10.42,3.28 -19.79,3.28 -29.51,0 -42.51,-18.39 -42.51,-39.35 0,-27.75 20.38,-41.93 43.92,-41.93 9.02,0 16.4,1.76 19.67,3.4
			l -4.1,16.75
			c -3.4,-1.41 -8.31,-2.81 -14.64,-2.81 -12.06,0 -22.6,7.14 -22.6,23.19 0,14.29 8.55,23.19 23.07,23.19 5.04,0 10.77,-0.94 14.05,-2.23
			z"
			fill="#974493"/>
	</svg>
	<!-- K -->
	<svg x="180" y="140">
    	<rect x="0" y="0" width="22" height="78" fill="#974493" />
		<polyline points="18,38 40,0 70,0 18,58" fill="#974493" />
		<polyline points="40,30 70,78 45,78 23,38" fill="#974493" />
	</svg>

    <!-- I -->
    <rect x="180" y="230" width="12" height="78" fill="#974493" />
	
	<!-- A -->
	<svg x="215" y="230" height="78">
		<polyline points="5,80 33,0 61,80" fill="none" stroke="#974493" stroke-width="10"/>
		<rect x="15" y="48" width="35" height="8" fill="#974493" />
	</svg>

	<circle r="8" cx="305" cy="300" fill="#974493" />
</svg>